<svg width="806" height="336" viewBox="0 0 806 336" fill="none" xmlns="http://www.w3.org/2000/svg">
<path d="M323.064 205.126C293.846 170.5 298.703 122.176 327.911 89.4213C342.824 72.6976 356.62 67.117 376.851 58.3936C384.092 54.6818 391.336 51.6881 398.754 48.3281C495.399 4.55498 578.549 117.52 501.389 193.767C499.551 195.582 495.092 197.783 494.017 199.994C492.668 202.365 486.933 204.905 484.332 206.012C466.445 213.628 448.448 224.099 430.513 231.331C423.39 235.284 404.562 238.175 395.995 238.377C391.734 238.478 383.151 237.633 378.783 236.972C361.387 234.427 345.132 226.799 332.058 215.047C329.014 212.357 326.011 209.743 323.591 206.465L323.064 205.126Z" fill="#FEFEFE"/>
<path d="M323.064 205.126C293.846 170.5 298.703 122.176 327.911 89.4213C342.824 72.6976 356.62 67.117 376.851 58.3936C384.092 54.6818 391.336 51.6881 398.754 48.3281C495.399 4.55497 578.549 117.52 501.389 193.767C499.551 195.582 495.092 197.783 494.017 199.994C493.403 193.351 493.592 185.802 493.592 179.062L493.6 148.116C493.612 119.275 493.285 89.795 493.647 61.0076L461.958 61.0045C460.199 66.0378 455.819 74.7451 453.395 79.9629L437.102 115.076C435.063 119.457 432.879 123.803 430.907 128.208C428.4 133.819 429.486 140.824 429.356 146.879L418.325 146.825C430.958 118.78 445.11 88.7744 458.479 60.9911L395.373 60.9643C379.154 92.6018 361.698 124.638 344.987 156.103L330.958 182.52C328.62 186.921 325.886 191.661 323.955 196.217C322.994 198.484 323.402 202.433 323.064 205.126Z" fill="#DF0000"/>
<path d="M323.59 206.465C358.419 205.781 395.412 206.311 430.36 206.328C430.439 214.399 430.234 223.381 430.513 231.331C423.39 235.284 404.562 238.175 395.995 238.377C391.734 238.478 383.151 237.633 378.783 236.972C361.387 234.427 345.132 226.799 332.058 215.047C329.014 212.357 326.011 209.743 323.59 206.465Z" fill="#DF0000"/>
<path d="M551.287 124.759C564.09 125.038 577.349 124.39 590.171 124.826C611.757 125.561 657.901 120.051 662.966 149.1C666.398 168.81 652.821 177.962 635.327 181.281C625.225 184.022 596.92 183.375 585.511 183.513L585.539 207.293C576.605 207.947 560.249 207.438 550.788 207.436C550.26 198.699 549.906 128.308 551.287 124.759ZM585.295 162.897C596.342 162.962 616.196 164.241 625.972 160.071C628.995 157.682 629.648 152.409 627.137 149.477C624.249 146.099 618.404 145.909 614.323 145.507C606.086 144.764 593.288 146.135 585.444 145.239C585.558 149.326 585.79 159.22 585.295 162.897Z" fill="#FEFEFE"/>
<path d="M269.245 124.584L269.811 124.963C270.217 127.403 269.977 146.115 269.978 149.555L269.987 207.31C259.715 207.829 245.902 207.415 235.361 207.417C235.224 200.577 235.16 193.735 235.169 186.894C235.137 182.931 234.884 178.09 235.17 174.244C221.636 173.776 205.736 174.165 192.042 174.211C192.248 177.742 191.969 183.255 191.958 187.069C191.94 193.433 192.295 201.053 191.859 207.297C182.096 207.889 167.607 207.428 157.491 207.425C157.181 206.576 157.113 205.75 157.109 204.848C156.994 180.015 157.009 155.171 157.077 130.338C157.08 129.153 157.17 126.22 157.664 125.251C158.638 125.112 159.616 125.005 160.596 124.928C163.763 124.684 190.089 124.36 191.376 125.463C192.419 127.841 191.988 153.674 192.011 157.803C197.869 158.364 206.478 158.191 212.45 158.172C219.437 158.15 228.118 158.375 235 157.898C235.52 147.105 234.98 135.954 235.407 124.974C246.287 124.273 258.268 125.413 269.245 124.584Z" fill="#FEFEFE"/>
<path d="M725.601 123.312C737.006 121.686 759.635 123.973 769.415 130.298C777.881 135.77 781.607 141.515 784.044 151.033C779.47 151.389 751.142 151.21 747.636 150.514C743.161 146.83 740.544 145.516 734.637 145.196C730.587 144.977 721.685 147.605 721.732 152.467C726.285 157.202 765.783 153.049 779.356 165.958C782.509 168.954 784.41 172.835 784.508 177.205C784.665 184.427 780.584 191.95 775.673 197.019C768.286 204.64 755.338 208.392 744.909 208.565C732.85 210.536 708.91 208.215 698.973 201.273C691.239 195.87 687.331 190.447 685.328 181.267C688.654 180.846 695.931 180.985 699.579 181.001C706.517 181.03 714.066 180.84 720.953 181.125C725.329 184.398 727.21 186.121 732.976 186.917C737.569 187.551 747.042 184.994 747.537 179.703C745.762 176.422 733.826 176.833 729.91 176.402C715.36 174.801 686.887 175.202 684.868 155.651C684.234 149.519 688.244 140.898 692.113 136.428C700.047 127.265 714.046 124.299 725.601 123.312Z" fill="#FEFEFE"/>
<path d="M72.6309 123.308C84.2927 121.894 105.004 123.787 115.145 129.587C124.7 135.051 128.175 141.05 131.232 151.1C121.554 151.547 106.786 150.958 96.7523 150.891C93.9175 149.836 90.2865 147.239 87.5273 146.293C81.4682 144.216 71.0665 144.797 68.7308 151.979C68.9421 152.585 68.9783 153.074 69.6722 153.27C73.775 154.344 77.9852 154.638 82.1825 154.983C94.4252 155.969 105.066 156.463 116.81 160.423C136.228 166.972 134.619 185.036 122.015 197.712C115.552 204.212 101.268 208.663 91.893 208.473C89.4959 208.972 86.2747 209.024 83.7287 209.043C65.8287 209.177 42.2544 206.665 34.4007 187.754C33.756 186.201 32.4149 183.227 33.0944 181.614C35.1398 180.624 63.8507 180.934 67.9161 181.164C73.0878 184.524 75.0509 187.063 81.9487 187.019C85.7512 186.994 94.8427 184.198 94.6074 179.79C92.544 176.47 81.9841 176.859 78.1556 176.49C65.3702 175.257 48.6087 175.183 38.0044 167.133C27.878 159.446 31.9899 144.565 39.1626 136.408C47.2332 127.236 60.9777 124.246 72.6309 123.308Z" fill="#FEFEFE"/>
<path d="M479.956 282.172C497.123 281.828 497.618 308.226 483.553 311.578C480.349 311.651 478.173 311.769 475.241 309.925C468.279 305.55 467.57 293.915 471.608 287.368C473.659 284.043 476.339 282.964 479.956 282.172ZM482.927 306.984C490.432 302.658 490.05 286.522 479.668 286.857C472.738 290.221 471.581 307.567 482.927 306.984Z" fill="#FEFEFE"/>
<path d="M335.31 302.188C335.277 298.522 334.843 285.693 335.834 282.972C336.823 282.38 339.2 282.341 340.231 282.797C341.094 284.482 341.191 309.571 340.519 311.851C339.068 311.771 337.911 311.526 336.496 311.254C332.835 308.001 323.895 296.362 320.302 291.899C320.487 297.247 320.616 304.575 320.205 309.943C320.132 310.895 319.792 310.942 319.128 311.363C317.775 311.455 316.875 311.596 315.565 311.25C314.27 309.685 314.817 285.556 315.018 282.422C321.126 282.397 322.659 286.678 326.355 290.994C329.431 294.584 332.349 298.483 335.31 302.188Z" fill="#FEFEFE"/>
<path d="M390.566 282.509C394.358 282.477 408.085 282.102 410.942 282.794C411.91 283.846 411.922 285.042 411.229 286.205C408.585 287.855 399.434 287.166 395.818 287.12C396.073 289.689 395.951 291.871 395.857 294.45C398.714 294.533 407.55 294.114 409.45 294.753C412.252 300.89 399.143 299.05 395.692 299.045C396.034 301.409 395.991 304.448 395.578 306.805C398.852 306.924 409.065 306.454 411.363 307.566C411.843 308.705 411.753 309.398 411.729 310.631C409.993 312.145 393.988 311.592 390.363 311.586C389.98 305.885 389.869 287.674 390.566 282.509Z" fill="#FEFEFE"/>
<path d="M271.191 282.251C274.364 281.983 281.602 282.13 283.003 285.422C282.77 286.548 282.499 286.918 281.931 287.907C279.395 288.718 268.133 283.203 267.383 290.42C268.531 294.693 278.493 294.63 281.835 297.888C289.1 304.968 281.999 311.039 273.863 311.713C271.215 311.639 263.212 310.996 261.852 308.331C261.745 307.141 261.728 306.974 262.364 305.924C265.752 304.193 279.897 311.604 278.889 303.105C277.242 299.838 268.936 298.205 264.659 296.646C259.022 289.379 262.828 283.724 271.191 282.251Z" fill="#FEFEFE"/>
<path d="M536.021 282.487C539.666 282.465 549.123 282.118 552.098 282.661C553.078 283.598 553.271 285.687 552.177 286.327C549.576 287.854 543.44 287.152 540.461 287.052C540.41 289.692 540.421 290.819 539.8 293.365C546.927 293.815 557.281 295.301 553.968 305.273C552.814 308.752 550.386 310.091 547.316 311.471C541.02 311.872 538.997 311.982 533.243 309.269C531.736 306.852 534.01 303.967 536.761 305.417C541.984 308.226 552.685 308.089 547.45 299.68C545.038 295.797 538.111 300.894 534.939 297.617C533.79 294.592 535.4 285.899 536.021 282.487Z" fill="#FEFEFE"/>
<path d="M510.956 282.235C517.973 281.71 521.979 283.469 523.632 290.574C522.07 297.509 516.068 302.421 510.649 306.92C514.388 306.903 522.479 305.681 524.848 308.499C524.959 309.897 525.089 309.345 524.321 310.572C521.802 312.194 514.726 311.585 511.338 311.544C509.142 311.577 503.837 312.256 502.786 310.344C503.006 304.576 519.961 295.921 517.733 288.969C514.703 285.05 509 287.233 505.643 289.48C504.502 288.738 503.671 288.336 502.998 287.163C502.963 283.642 508.095 282.726 510.956 282.235Z" fill="#FEFEFE"/>
<path d="M446.732 282.212C446.952 282.193 447.173 282.179 447.393 282.171C452.442 281.998 454.516 282.91 458.066 286.182C460.62 294.163 456.319 297.703 450.99 302.834C449.424 304.342 448.023 305.632 446.204 306.869C449.987 306.932 456.787 306.364 460.061 307.442C460.782 308.639 460.427 309.46 459.798 310.555C457.539 312.219 451.23 311.579 447.964 311.548C445.846 311.6 440.647 311.991 439.105 311.074C436.153 305.647 457.082 295.58 453.096 288.96C449.109 282.334 441.84 292.453 438.774 287.359C438.845 283.469 443.544 282.878 446.732 282.212Z" fill="#FEFEFE"/>
<path d="M366.586 282.245C372.235 281.631 375.363 283.407 379.755 286.427C378.822 287.627 377.748 288.678 376.686 289.764C374.956 288.879 373.542 288.115 371.6 287.494C361.774 284.352 354.93 294.198 359.976 302.712C363.202 308.156 369.8 308.141 374.882 304.788C376.343 303.789 377.613 304.58 378.572 305.7C379.476 312.904 363.337 313.008 358.563 308.669C348.321 299.36 352.022 284.19 366.586 282.245Z" fill="#FEFEFE"/>
<path d="M297.037 282.553C298.331 282.486 299.777 282.309 300.696 283.115C301.668 286.18 302.119 309.827 300.51 311.559C299.14 311.59 297.69 311.788 296.577 311.037C295.487 308.612 295.593 284.291 297.037 282.553Z" fill="#FEFEFE"/>
</svg>
